# xmcd
#
# Track frame offsets:
#	151
#	12673
#	28187
#	43180
#	50269
#	64147
#	76549
#	90482
#	110526
#	121956
#	134864
#	144775
#	154932
#	165043
#
# Disc length: 2330 seconds
#
# Revision: 0
# Processed by: cddbd v1.4PL0 Copyright (c) Steve Scherf et al.
# Submitted via: dBpowerAMP V4.0
#
DISCID=b109180e
DTITLE=Willie Nelson - Suffering In Silence
DYEAR=1900
DGENRE=country
TTITLE0=Country Willie
TTITLE1=Face of a Fighter
TTITLE2=Ans So Will You My Love
TTITLE3=Both Ends Of the Candle
TTITLE4=Home is Where Youre Happy
TTITLE5=Shelter In My Arms
TTITLE6=Rainy Day Blues
TTITLE7=The Last Letter
TTITLE8=Suffering In Silence
TTITLE9=I Just Don't Understand
TTITLE10=I Didn't Sleep A Wink
TTITLE11=Blame It On The Times
TTITLE12=Pride Wins Again
TTITLE13=One Step Beyond
EXTD=
EXTT0=
EXTT1=
EXTT2=
EXTT3=
EXTT4=
EXTT5=
EXTT6=
EXTT7=
EXTT8=
EXTT9=
EXTT10=
EXTT11=
EXTT12=
EXTT13=
PLAYORDER=
